<!-- <svg version="1.1" xmlns="https://www.w3.org/2000/svg" 
    width="200px" height="200px" x="0px" y="=px"
    enable-background="new 0 65.326 612 502.174" 
    xml:space="preserve"> -->

<svg version="1.1" id="Layer_1" xmlns="http://www.w3.org/2000/svg"
	 xml:space="preserve"> 
    <symbol id="diamond" width="100px" height="100px" viewBox="0 0 200 200" fill="none">
        <polyline points="40,5 70,50 100,5 130,50 160,5 195,50 5,50 100,195 70,50 130,50 100,195" stroke="#4BA1E7" stroke-width="10" stroke-linecap="round" stroke-linejoin="round"></polyline>
        <polyline points="5,50 100,195 195,50 160,5 40,5 5,50" stroke="#1768AC" stroke-width="10" stroke-linecap="round" stroke-linejoin="round"></polyline>
    </symbol>
    <symbol id="graduation" width="100px" height="100px" viewBox="0 -30 200 200" fill="none">
        <polyline points="100,5 195,40 100,80 5,40 100,5" stroke="black" stroke-width="10" stroke-linecap="round" stroke-linejoin="round"></polyline>
        <polyline points="30,55 30,100 45,110 70,120 100,122 130,120 145,115 170,100 170,55" stroke="black" stroke-width="10" stroke-linecap="round" stroke-linejoin="round"></polyline>
    </symbol>
    <symbol id="wedding" width="100px" height="100px" viewBox="0 -40 180 200" fill="none">
        <ellipse cx="60" cy="50" rx="50" ry="23" stroke="gold" stroke-width="10" />
        <ellipse cx="120" cy="60" rx="50" ry="23" stroke="gold" stroke-width="10" />
    </symbol>
    <symbol id="party" width="100px" height="100px" viewBox="0 0 200 140" fill="green">
        <polyline points="100,5 45,110 70,120 100,122 130,120 145,115 100,5" stroke="green" stroke-width="10" stroke-linecap="round" stroke-linejoin="round"></polyline>
        <polyline points="45,110 135,90" stroke="blue" stroke-width="10" stroke-linecap="round" stroke-linejoin="round"></polyline>
        <polyline points="85,120 135,110" stroke="blue" stroke-width="10" stroke-linecap="round" stroke-linejoin="round"></polyline>
        <polyline points="55,90 127,72" stroke="blue" stroke-width="10" stroke-linecap="round" stroke-linejoin="round"></polyline>
        <polyline points="68,65 120,53" stroke="blue" stroke-width="10" stroke-linecap="round" stroke-linejoin="round"></polyline>
        <polyline points="82,41 110,35" stroke="blue" stroke-width="10" stroke-linecap="round" stroke-linejoin="round"></polyline>
    </symbol>
    
</svg>